<svg width="800" height="800" viewBox="0 0 800 800" fill="none" xmlns="http://www.w3.org/2000/svg">
<path fill-rule="evenodd" clip-rule="evenodd" d="M383.813 37.528C393.88 31.9351 406.12 31.9351 416.187 37.528L716.15 204.174C716.403 204.314 716.653 204.457 716.903 204.604C727.083 210.594 733.333 221.523 733.333 233.333V566.667C733.333 578.773 726.77 589.927 716.187 595.807L416.187 762.473C405.97 768.15 393.53 768.053 383.407 762.243L83.812 595.8C73.2296 589.923 66.6666 578.77 66.6666 566.663V233.333C66.6666 221.523 72.9163 210.59 83.0956 204.601L83.5766 204.595L83.812 204.195L383.813 37.528ZM400.003 361.867L168.641 233.332L400 104.799L631.363 233.333L400.003 361.867ZM133.333 289.984V547.05L366.667 676.68V419.613L133.333 289.984ZM433.333 419.613V676.683L666.667 547.053V289.984L433.333 419.613Z" fill="#0F0F0F"/>
<path d="M169 233.216L400.5 101L632 233.216L400.5 367L169 233.216Z" fill="#FFFF54"/>
<path d="M133 550.5V288.5L367.5 420V680.5L133 550.5Z" fill="#F19E39"/>
<path d="M669 546.331L431 678V417.165L669 289V546.331Z" fill="#3663F6"/>
</svg>
