<svg width="128" height="128" viewBox="0 0 128 128" fill="none" xmlns="http://www.w3.org/2000/svg">
<path d="M45.5 10.5H10.5V45.5H45.5V10.5Z" fill="#FFFF54" stroke="black"/>
<path d="M81.5 10.5H46.5V45.5H81.5V10.5Z" fill="#FFFF54" stroke="black"/>
<path d="M117.5 10.5H82.5V45.5H117.5V10.5Z" fill="#FFFF54" stroke="black"/>
<path d="M117.5 46.5H82.5V81.5H117.5V46.5Z" fill="#FFFF54" stroke="black"/>
<path d="M81.5 46.5H46.5V81.5H81.5V46.5Z" fill="#FFFF54" stroke="black"/>
<path d="M45.5 46.5H10.5V81.5H45.5V46.5Z" fill="#FFFF54" stroke="black"/>
<path d="M45.5 82.5H10.5V117.5H45.5V82.5Z" fill="#FFFF54" stroke="black"/>
<path d="M81.5 82.5H46.5V117.5H81.5V82.5Z" fill="#FFFF54" stroke="black"/>
<path d="M117.5 82.5H82.5V117.5H117.5V82.5Z" fill="#FFFF54" stroke="black"/>
<path d="M45.5 1.5H10.5V9.5H45.5V1.5Z" fill="#EA3423" stroke="black"/>
<path d="M81.5 1.5H46.5V9.5H81.5V1.5Z" fill="#EA3423" stroke="black"/>
<path d="M117.5 1.5H82.5V9.5H117.5V1.5Z" fill="#EA3423" stroke="black"/>
<path d="M117.5 118.5H82.5V126.5H117.5V118.5Z" fill="#F19E39" stroke="black"/>
<path d="M81.5 118.5H46.5V126.5H81.5V118.5Z" fill="#75FB4C" stroke="black"/>
<path d="M45.5 118.5H10.5V126.5H45.5V118.5Z" fill="#F19E39" stroke="black"/>
<path d="M1.5 82.5L1.5 117.5H9.5L9.5 82.5H1.5Z" fill="#75FB4C" stroke="black"/>
<path d="M1.5 46.5L1.5 81.5H9.5L9.5 46.5H1.5Z" fill="#3663F6" stroke="black"/>
<path d="M1.5 10.5L1.5 45.5H9.5L9.5 10.5H1.5Z" fill="#75FB4C" stroke="black"/>
<path d="M118.5 10.5V45.5H126.5V10.5H118.5Z" fill="#3663F6" stroke="black"/>
<path d="M118.5 46.5V81.5H126.5V46.5H118.5Z" fill="#F19E39" stroke="black"/>
<path d="M118.5 82.5V117.5H126.5V82.5H118.5Z" fill="#3663F6" stroke="black"/>
<path d="M90 64L31 64" stroke="black" stroke-width="4"/>
<path d="M90 69.1963V58.8037L99.001 64L90 69.1963Z" fill="black" stroke="black"/>
<path d="M62.8431 100.855L35.8431 73.8554" stroke="black" stroke-width="4"/>
<path d="M40.6951 71.3465L33.3465 78.6952L30.6562 68.6562L40.6951 71.3465Z" fill="black" stroke="black"/>
<path d="M96.8553 68.9559L69.8553 95.9559" stroke="black" stroke-width="4"/>
<path d="M67.3465 91.1039L74.6952 98.4525L64.6562 101.143L67.3465 91.1039Z" fill="black" stroke="black"/>
</svg>
