<svg width="126" height="126" viewBox="0 0 126 126" fill="none" xmlns="http://www.w3.org/2000/svg">
<g clip-path="url(#clip0_3156_2)">
<path d="M44.5 9.5H9.5V44.5H44.5V9.5Z" fill="#FFFF54" stroke="black"/>
<path d="M80.5 9.5H45.5V44.5H80.5V9.5Z" fill="#FFFF54" stroke="black"/>
<path d="M116.5 9.5H81.5V44.5H116.5V9.5Z" fill="#FFFF54" stroke="black"/>
<path d="M116.5 45.5H81.5V80.5H116.5V45.5Z" fill="#FFFF54" stroke="black"/>
<path d="M80.5 45.5H45.5V80.5H80.5V45.5Z" fill="#FFFF54" stroke="black"/>
<path d="M44.5 45.5H9.5V80.5H44.5V45.5Z" fill="#FFFF54" stroke="black"/>
<path d="M44.5 81.5H9.5V116.5H44.5V81.5Z" fill="#FFFF54" stroke="black"/>
<path d="M80.5 81.5H45.5V116.5H80.5V81.5Z" fill="#FFFF54" stroke="black"/>
<path d="M116.5 81.5H81.5V116.5H116.5V81.5Z" fill="#FFFF54" stroke="black"/>
<path d="M44.5 0.5H9.5V8.5H44.5V0.5Z" fill="#EA3423" stroke="black"/>
<path d="M80.5 0.5H45.5V8.5H80.5V0.5Z" fill="#EA3423" stroke="black"/>
<path d="M116.5 0.5H81.5V8.5H116.5V0.5Z" fill="#EA3423" stroke="black"/>
<path d="M116.5 117.5H81.5V125.5H116.5V117.5Z" fill="#F19E39" stroke="black"/>
<path d="M80.5 117.5H45.5V125.5H80.5V117.5Z" fill="#3663F6" stroke="black"/>
<path d="M44.5 117.5H9.5V125.5H44.5V117.5Z" fill="#F19E39" stroke="black"/>
<path d="M0.5 81.5L0.5 116.5H8.5L8.5 81.5H0.5Z" fill="#75FB4C" stroke="black"/>
<path d="M0.5 45.5L0.5 80.5H8.5L8.5 45.5H0.5Z" fill="#F19E39" stroke="black"/>
<path d="M0.5 9.5L0.5 44.5H8.5L8.5 9.5H0.5Z" fill="#75FB4C" stroke="black"/>
<path d="M117.5 9.5V44.5H125.5V9.5H117.5Z" fill="#3663F6" stroke="black"/>
<path d="M117.5 45.5V80.5H125.5V45.5H117.5Z" fill="#75FB4C" stroke="black"/>
<path d="M117.5 81.5V116.5H125.5V81.5H117.5Z" fill="#3663F6" stroke="black"/>
<path d="M96 63H36" stroke="black" stroke-width="4"/>
<path d="M37 57.8038V68.1963L27.999 63.0001L37 57.8038Z" fill="black" stroke="black"/>
<path d="M29.9558 67.9436L56.9558 94.9436" stroke="black" stroke-width="4"/>
<path d="M52.1038 97.4525L59.4525 90.1039L62.1428 100.143L52.1038 97.4525Z" fill="black" stroke="black"/>
<path d="M63.9437 99.8431L90.9437 72.8431" stroke="black" stroke-width="4"/>
<path d="M93.4525 77.6951L86.1039 70.3465L96.1429 67.6562L93.4525 77.6951Z" fill="black" stroke="black"/>
</g>
<defs>
<clipPath id="clip0_3156_2">
<rect width="126" height="126" fill="white"/>
</clipPath>
</defs>
</svg>
